<mxfile host="app.diagrams.net" modified="2023-04-02T09:34:59.030Z" agent="5.0 (Windows NT 10.0; Win64; x64) AppleWebKit/537.36 (KHTML, like Gecko) Chrome/110.0.0.0 Safari/537.36" etag="cxYVCKBtsV_jeGkd5GwO" version="20.8.3" type="github">
  <diagram id="3228e29e-7158-1315-38df-8450db1d8a1d" name="Page-1">
    <mxGraphModel dx="1591" dy="1196" grid="1" gridSize="10" guides="1" tooltips="1" connect="1" arrows="1" fold="1" page="1" pageScale="1" pageWidth="1169" pageHeight="827" background="none" math="0" shadow="0">
      <root>
        <mxCell id="0" />
        <mxCell id="1" parent="0" />
        <mxCell id="21531" value="" style="ellipse;fillColor=#F08705;opacity=60;strokeColor=none;html=1;fontColor=#FFFFFF;" parent="1" vertex="1">
          <mxGeometry x="380" y="308.5" width="500" height="500" as="geometry" />
        </mxCell>
        <mxCell id="21532" value="" style="ellipse;fillColor=#12AAB5;opacity=60;strokeColor=none;html=1;fontColor=#000000;" parent="1" vertex="1">
          <mxGeometry x="220" y="18.5" width="500" height="500" as="geometry" />
        </mxCell>
        <mxCell id="21533" value="" style="ellipse;fillColor=#e85642;opacity=60;strokeColor=none;html=1;fontColor=#000000;" parent="1" vertex="1">
          <mxGeometry x="530" y="18.5" width="500" height="500" as="geometry" />
        </mxCell>
        <mxCell id="21534" value="Dynamic&lt;br&gt;&lt;font style=&quot;font-size: 12px;&quot;&gt;Respect&lt;/font&gt;" style="text;fontSize=24;align=center;verticalAlign=middle;html=1;fontColor=#000000;" parent="1" vertex="1">
          <mxGeometry x="340" y="228.5" width="190" height="70" as="geometry" />
        </mxCell>
        <mxCell id="21535" value="Hierarchical&lt;br&gt;&lt;font style=&quot;font-size: 12px;&quot;&gt;Loyalty&lt;/font&gt;" style="text;fontSize=24;align=center;verticalAlign=middle;html=1;fontColor=#000000;" parent="1" vertex="1">
          <mxGeometry x="740" y="228.5" width="190" height="70" as="geometry" />
        </mxCell>
        <mxCell id="21536" value="Uniform&lt;br&gt;&lt;font style=&quot;font-size: 12px;&quot;&gt;Common values&lt;/font&gt;" style="text;fontSize=24;align=center;verticalAlign=middle;html=1;fontColor=#000000;" parent="1" vertex="1">
          <mxGeometry x="540" y="558.5" width="190" height="70" as="geometry" />
        </mxCell>
        <mxCell id="21537" value="Feudal state" style="text;align=center;html=1;fontColor=#000000;fontSize=16;" parent="1" vertex="1">
          <mxGeometry x="610" y="198.5" width="40" height="40" as="geometry" />
        </mxCell>
        <mxCell id="21538" value="Anarcho-syndicalism" style="text;align=center;html=1;fontColor=#000000;fontSize=16;" parent="1" vertex="1">
          <mxGeometry x="490" y="418.5" width="40" height="40" as="geometry" />
        </mxCell>
        <mxCell id="21539" value="State-organism" style="text;align=center;html=1;fontColor=#000000;fontSize=16;" parent="1" vertex="1">
          <mxGeometry x="740" y="418.5" width="40" height="40" as="geometry" />
        </mxCell>
        <mxCell id="JMQzG4-AQKhtNmrJnzyl-21540" value="Democracy" style="text;align=center;html=1;fontColor=#000000;fontSize=16;" vertex="1" parent="1">
          <mxGeometry x="610" y="360" width="40" height="40" as="geometry" />
        </mxCell>
        <mxCell id="JMQzG4-AQKhtNmrJnzyl-21542" value="Anarchy" style="text;align=center;html=1;fontColor=#000000;fontSize=16;" vertex="1" parent="1">
          <mxGeometry x="320.5" y="130" width="40" height="40" as="geometry" />
        </mxCell>
        <mxCell id="JMQzG4-AQKhtNmrJnzyl-21543" value="Family" style="text;align=center;html=1;fontColor=#000000;fontSize=16;" vertex="1" parent="1">
          <mxGeometry x="890" y="130" width="40" height="40" as="geometry" />
        </mxCell>
        <mxCell id="JMQzG4-AQKhtNmrJnzyl-21544" value="Sect" style="text;align=center;html=1;fontColor=#000000;fontSize=16;" vertex="1" parent="1">
          <mxGeometry x="610" y="710" width="40" height="40" as="geometry" />
        </mxCell>
        <mxCell id="JMQzG4-AQKhtNmrJnzyl-21545" value="&lt;h1&gt;Types of social organization&lt;/h1&gt;&lt;p&gt;Three common social interactions that define social fabric.&lt;/p&gt;&lt;p&gt;&lt;span style=&quot;background-color: initial;&quot;&gt;Note that the types of social interaction are not mutually exclusive and therefore any society can be a mixture of all three. In addition, completely different value systems can ensure uniformity. Specific methods of dealing with deviant manifestations also do not completely depend on the type of social structure. Despite these limitations, the types of social interaction reveal sources of harmony and stability of a given society.&lt;/span&gt;&lt;br&gt;&lt;/p&gt;" style="text;html=1;strokeColor=none;fillColor=none;spacing=5;spacingTop=-20;whiteSpace=wrap;overflow=hidden;rounded=0;fontSize=12;fontColor=#000000;" vertex="1" parent="1">
          <mxGeometry x="30" y="30" width="190" height="690" as="geometry" />
        </mxCell>
      </root>
    </mxGraphModel>
  </diagram>
</mxfile>
